<svg xmlns="http://www.w3.org/2000/svg" width="900" height="560" viewBox="0 0 900 560" role="img" aria-labelledby="title desc">
<title id="title">Spider mites</title>
<desc id="desc">Fine webbing and speckled leaves.</desc>
<defs>
  <linearGradient id="g" x1="0" x2="1" y1="0" y2="1">
    <stop offset="0" stop-color="#f9f6ea"/>
    <stop offset="1" stop-color="#e8f3dc"/>
  </linearGradient>
  <filter id="shadow" x="-20%" y="-20%" width="140%" height="140%">
    <feDropShadow dx="0" dy="14" stdDeviation="18" flood-color="#1b2c1c" flood-opacity=".16"/>
  </filter>
</defs>
<rect width="900" height="560" fill="url(#g)"/>
<circle cx="760" cy="110" r="150" fill="#B56576" opacity=".18"/>
<circle cx="155" cy="480" r="190" fill="#EAAC8B" opacity=".12"/>
<g filter="url(#shadow)">
  <rect x="94" y="68" width="712" height="390" rx="38" fill="#ffffff"/>
  <path d="M160 380 C225 250 335 185 480 150 C612 118 705 165 750 230 C664 268 576 288 488 290 C350 292 245 330 160 380Z" fill="#B56576" opacity=".38"/>
  <path d="M110 330 C 130 260, 180 220, 220 150" stroke="#6D597A" stroke-width="4" stroke-linecap="round" opacity="0.22" fill="none"/><path d="M180 330 C 200 260, 250 220, 290 150" stroke="#6D597A" stroke-width="4" stroke-linecap="round" opacity="0.22" fill="none"/><path d="M250 330 C 270 260, 320 220, 360 150" stroke="#6D597A" stroke-width="4" stroke-linecap="round" opacity="0.22" fill="none"/><path d="M320 330 C 340 260, 390 220, 430 150" stroke="#6D597A" stroke-width="4" stroke-linecap="round" opacity="0.22" fill="none"/><path d="M390 330 C 410 260, 460 220, 500 150" stroke="#6D597A" stroke-width="4" stroke-linecap="round" opacity="0.22" fill="none"/><path d="M460 330 C 480 260, 530 220, 570 150" stroke="#6D597A" stroke-width="4" stroke-linecap="round" opacity="0.22" fill="none"/>
  <circle cx="120" cy="120" r="36" fill="#EAAC8B" opacity="0.22"/><circle cx="290" cy="86" r="24" fill="#EAAC8B" opacity="0.3"/><circle cx="405" cy="168" r="30" fill="#EAAC8B" opacity="0.38"/><circle cx="210" cy="250" r="20" fill="#EAAC8B" opacity="0.22"/><circle cx="500" cy="260" r="44" fill="#EAAC8B" opacity="0.3"/><circle cx="70" cy="305" r="28" fill="#EAAC8B" opacity="0.38"/>
  <path d="M154 400 C245 300 353 251 478 233 C589 217 675 236 748 286" stroke="#6D597A" stroke-width="13" stroke-linecap="round" fill="none"/>
  <path d="M176 402 C245 377 294 336 333 290" stroke="#6D597A" stroke-width="6" stroke-linecap="round" opacity=".35"/>
  <path d="M361 275 C420 302 484 306 553 286" stroke="#6D597A" stroke-width="6" stroke-linecap="round" opacity=".35"/>
  <path d="M584 276 C627 240 668 219 709 213" stroke="#6D597A" stroke-width="6" stroke-linecap="round" opacity=".35"/>
</g>
<text x="94" y="510" font-family="Georgia, serif" font-size="44" font-weight="700" fill="#1f351f">Spider mites</text>
<text x="96" y="542" font-family="Arial, sans-serif" font-size="22" fill="#536653">Fine webbing and speckled leaves.</text>
</svg>
