<svg xmlns="http://www.w3.org/2000/svg" viewBox="0 0 760 500" role="img" aria-labelledby="title desc">
<title id="title">White powder on leaves</title>
<desc id="desc">Example plant symptom illustration.</desc>
<rect width="760" height="500" rx="32" fill="#f6fbf1"/>
<path d="M384 438c-114-37-183-115-205-235-15-83 32-135 111-96 36 18 64 50 94 96 31-46 58-78 94-96 79-39 126 13 111 96-22 120-91 198-205 235z" fill="#4f8a44"/>
<path d="M384 438c-7-89-4-183 0-282" fill="none" stroke="#2e6536" stroke-width="11" stroke-linecap="round"/>
<g opacity=".85"><circle cx="278" cy="175" r="26" fill="#f7f3df"/><circle cx="372" cy="232" r="32" fill="#f7f3df"/><circle cx="470" cy="168" r="22" fill="#f7f3df"/></g>



<text x="380" y="68" text-anchor="middle" font-family="Inter, Arial, sans-serif" font-size="28" font-weight="800" fill="#1f2c1d">White powder on leaves</text>
</svg>